<svg width="186" height="186" viewBox="0 0 186 186" fill="none" xmlns="http://www.w3.org/2000/svg">
<g clip-path="url(#clip0_3762_69734)">
<path fill-rule="evenodd" clip-rule="evenodd" d="M93.0001 0C144.363 0 186 41.6374 186 92.9998C186 144.362 144.363 186 93.0001 186C41.6374 186 -0.000183105 144.362 -0.000183105 92.9998C-0.000183105 41.6374 41.6374 0 93.0001 0ZM93.0001 7.24673C45.6397 7.24673 7.24659 45.6397 7.24659 92.9998C7.24659 140.36 45.6397 178.753 93.0001 178.753C140.36 178.753 178.754 140.36 178.754 92.9998C178.754 45.6397 140.36 7.24673 93.0001 7.24673Z" fill="url(#paint0_linear_3762_69734)"/>
<path d="M153.282 61.9807C152.058 57.8512 150.013 54.6316 147.282 52.4882C144.399 50.226 140.864 49.2048 136.819 49.6058C133.172 49.966 129.123 51.5283 124.817 54.4404L124.613 54.5857C124.569 54.6188 105.687 70.47 105.687 70.47L110.787 75.895C110.787 75.895 128.201 61.2204 129.118 60.5085C132.297 58.3779 135.132 57.2498 137.552 57.0102C139.588 56.8097 141.317 57.2846 142.675 58.3499C144.184 59.5341 145.364 61.4778 146.136 64.0816C147.42 68.415 147.542 74.3285 146.225 81.4771L146.211 81.5655C146.192 81.6802 141.946 108.245 140.659 113.731C139.378 119.195 137.406 123.374 134.742 125.981C133.36 127.332 131.772 128.257 129.975 128.703C128.079 129.176 125.891 129.144 123.406 128.562C116.109 126.854 106.718 120.629 95.1422 108.819L95.0691 108.746L92.334 106.128L87.1538 111.474L89.8906 114.098C102.492 126.942 113.102 133.804 121.711 135.82C125.369 136.676 128.718 136.688 131.752 135.932C134.886 135.15 137.621 133.575 139.964 131.283C143.673 127.655 146.32 122.251 147.923 115.419C149.191 110.016 153.34 84.12 153.553 82.7879C155.085 74.4593 154.881 67.3718 153.282 61.9816V61.9807Z" fill="url(#paint1_linear_3762_69734)"/>
<path d="M76.8328 109.782L81.0069 105.587L86.2594 100.312L99.4203 87.1039L100.887 88.5693L103.912 77.2954L92.6251 80.3163L94.1534 81.8428L75.632 100.437L71.6084 104.48L66.6298 109.479L65.9077 110.206L65.8635 110.25C61.7226 114.537 57.2797 118.649 53.4799 119.604C50.6793 120.308 47.8634 118.633 45.278 112.358C44.703 110.183 40.8224 95.5167 39.6844 91.4492C38.5423 86.9094 38.6205 83.4697 39.6071 81.1581C40.1599 79.8626 41.0248 78.9553 42.1176 78.4584C43.361 77.8909 45.0007 77.7686 46.933 78.1118C51.3163 78.8942 56.7295 81.9983 62.3051 87.6552L62.3783 87.7283L69.4584 94.5142L75.0621 89.5709L67.5449 82.3678C60.8364 75.5828 53.9995 71.7982 48.2163 70.7677C44.8102 70.1611 41.6779 70.4857 39.0253 71.6954C36.2239 72.973 34.0586 75.1733 32.7497 78.2443C31.1475 81.9983 30.8872 87.0563 32.4478 93.257L32.4767 93.3589C33.721 97.7866 38.1315 114.479 38.1434 114.527L38.2148 114.796L38.2905 114.978C42.7138 125.877 48.7411 128.482 55.2888 126.835C60.8645 125.432 66.3117 120.505 71.2342 115.411L71.8142 114.826L76.8345 109.784L76.8328 109.782Z" fill="url(#paint2_linear_3762_69734)"/>
<path d="M76.8328 109.786L81.0069 105.591L86.2594 100.317L99.4203 87.1083L100.887 88.5737L103.912 77.2998L92.6251 80.3207L94.1534 81.8473L75.6319 100.441L71.6084 104.484L66.6297 109.484L65.9077 110.21L65.8635 110.254C61.7226 114.542 57.2687 118.608 53.4798 119.608C52.643 119.829 51.5875 119.859 50.4819 119.349C50.4819 119.349 46.5077 125.916 46.8462 126.102C49.2547 127.427 52.3343 127.581 55.2871 126.838C60.8627 125.434 66.31 120.508 71.2325 115.413L71.8125 114.829L76.8328 109.787V109.786Z" fill="url(#paint3_linear_3762_69734)"/>
</g>
<defs>
<linearGradient id="paint0_linear_3762_69734" x1="186.001" y1="162.75" x2="-5.47127" y2="155.534" gradientUnits="userSpaceOnUse">
<stop stop-color="#EF32D4"/>
<stop offset="0.449646" stop-color="#912FF5"/>
<stop offset="1" stop-color="#7DBCFE"/>
</linearGradient>
<linearGradient id="paint1_linear_3762_69734" x1="36.6276" y1="118.78" x2="153.206" y2="87.5082" gradientUnits="userSpaceOnUse">
<stop stop-color="#7DBCFE"/>
<stop offset="0.6" stop-color="#912FF5"/>
<stop offset="1" stop-color="#EF32D4"/>
</linearGradient>
<linearGradient id="paint2_linear_3762_69734" x1="34.9023" y1="102.451" x2="170.067" y2="66.194" gradientUnits="userSpaceOnUse">
<stop stop-color="#7DBCFE"/>
<stop offset="0.34" stop-color="#912FF5"/>
<stop offset="1" stop-color="#EF32D4"/>
</linearGradient>
<linearGradient id="paint3_linear_3762_69734" x1="43.0157" y1="111.86" x2="168.206" y2="78.2782" gradientUnits="userSpaceOnUse">
<stop stop-color="#21C8FF" stop-opacity="0"/>
<stop offset="0.09" stop-color="#21C8FF" stop-opacity="0.71"/>
<stop offset="0.14" stop-color="#21C8FF"/>
</linearGradient>
<clipPath id="clip0_3762_69734">
<rect width="186" height="186" fill="white" transform="matrix(-1 0 0 1 186 0)"/>
</clipPath>
</defs>
</svg>
